<?xml version="1.0" encoding="UTF-8" standalone="no"?>
<svg width="20px" height="20px" viewBox="0 0 20 20" version="1.1" xmlns="http://www.w3.org/2000/svg" xmlns:xlink="http://www.w3.org/1999/xlink">
    <!-- Generator: Sketch 48.2 (47327) - http://www.bohemiancoding.com/sketch -->
    <title>phone</title>
    <desc>Created with Sketch.</desc>
    <defs></defs>
    <g id="Symbols" stroke="none" stroke-width="1" fill="none" fill-rule="evenodd">
        <g id="phone" fill="#FFFFFF">
            <path d="M17.165778,13.0564459 C19.0552688,14.3129978 20,15.5076809 20,16.6405308 C20,16.8618923 19.9299596,17.1190584 19.7898766,17.4120368 C19.6497937,17.7050152 19.444559,18.0012445 19.1741663,18.3007336 C18.9037737,18.6002227 18.5975505,18.8769204 18.2554875,19.130835 C17.9134245,19.3847496 17.5159858,19.5930867 17.0631596,19.7558525 C16.6103334,19.9186183 16.1526274,20 15.6900279,20 C14.4716321,20 13.0691949,19.5003165 11.4826742,18.5009345 C9.89615345,17.5015525 8.06044295,15.9601836 5.97548759,13.8767814 L5.94616805,13.8377178 C3.76348041,11.4157628 2.1981585,9.39586957 1.25015535,7.77797757 C0.302152215,6.16008557 -0.106688367,4.8075221 0.0236213425,3.72024659 C0.069229741,3.36867247 0.165331711,3.03663523 0.311930134,2.72412491 C0.458528558,2.41161458 0.653990191,2.12515108 0.898320897,1.86472581 C1.1426516,1.60430054 1.37883441,1.38131474 1.6068764,1.19576174 C1.83491839,1.01020873 2.11833776,0.800244003 2.45714301,0.565861258 C3.09566059,0.103606401 3.67878779,-0.0754332879 4.20654212,0.0287368208 C4.64959513,0.106864402 5.10078573,0.377051569 5.56012746,0.839306427 C6.01946919,1.30156128 6.58467908,2.05027271 7.25577409,3.08546317 C7.57503287,3.58027118 7.81935992,4.0181046 7.98876254,4.39897656 C8.15816516,4.77984852 8.26729791,5.09723706 8.31616405,5.3511517 C8.36503019,5.60506634 8.35037057,5.84270084 8.27218474,6.06406232 C8.19399892,6.2854238 8.0962681,6.46609112 7.97898936,6.60606971 C7.86171062,6.74604829 7.69231054,6.90718401 7.47078403,7.0894817 C6.96909165,7.46709834 6.71824922,7.75356185 6.71824922,7.9488808 C6.71824922,8.02700838 6.76059924,8.11490059 6.84530055,8.21256007 C7.36653939,8.8115382 8.12069553,9.60419573 9.10779158,10.5905564 C10.0948876,11.5769172 11.0086708,12.4607222 11.8491684,13.241998 C11.9403852,13.3266362 12.0413737,13.3689547 12.152137,13.3689547 C12.2498692,13.3689547 12.3557443,13.3380296 12.4697653,13.2761786 C12.5837863,13.2143276 12.6766306,13.1541052 12.7483009,13.0955095 C12.8199712,13.0369138 12.9063001,12.9587874 13.0072902,12.8611279 C13.1082802,12.7634685 13.1620321,12.7113842 13.1685476,12.7048735 C13.3835586,12.5095546 13.5627318,12.3646952 13.7060725,12.270291 C13.8494132,12.1758869 14.0367306,12.0945052 14.2680303,12.0261436 C14.49933,11.9577819 14.7387705,11.9512714 14.986359,12.0066118 C15.2339474,12.0619521 15.5401707,12.1726312 15.9050378,12.3386523 C16.269905,12.5046735 16.6901475,12.7439356 17.165778,13.0564459 Z"></path>
        </g>
    </g>
</svg>